<svg xmlns="http://www.w3.org/2000/svg" width="16" height="16" viewBox="0 0 16 16">
  <g fill="none" fill-rule="evenodd">
    <polygon fill="#9AA7B0" fill-opacity=".8" points="7 1 3 5 7 5"/>
    <polygon fill="#9AA7B0" fill-opacity=".8" points="13 10 13 1 8 1 8 6 3 6 3 10"/>
    <path fill="#40B6E0" d="M5.168,13.848 L3.83,13.848 L3.83,15.218 L5.23,15.218 C5.806,15.218 6.156,14.983 6.156,14.534 L6.156,14.519 C6.156,14.098 5.834,13.848 5.168,13.848 Z M5.889,12.413 C5.889,12.021 5.587,11.779 5.045,11.779 L3.83,11.779 L3.83,13.106 L4.983,13.106 C5.525,13.106 5.889,12.884 5.889,12.427 L5.889,12.413 Z M3,11 L5.154,11 C5.703,11 6.136,11.158 6.41,11.443 C6.623,11.663 6.732,11.935 6.732,12.271 L6.732,12.286 C6.732,12.884 6.403,13.205 6.046,13.399 C6.609,13.599 7,13.934 7,14.612 L7,14.626 C7,15.518 6.293,15.996 5.223,15.996 L3,15.996 L3,11 Z"/>
    <polygon fill="#40B6E0" points="13.879 11.801 16 11.801 16 11 13 11 13 16 13.879 16 13.879 13.965 15.984 13.965 15.984 13.164 13.879 13.164"/>
    <polygon fill="#40B6E0" points="11.136 11 11.033 11 11.033 14.309 8.731 11 8 11 8 16 8.776 16 8.879 16 8.879 12.591 11.251 16 11.912 16 11.912 11"/>
  </g>
</svg>
